<svg xmlns="http://www.w3.org/2000/svg" xmlns:xlink="http://www.w3.org/1999/xlink" width="633" height="88" viewBox="0 0 633 88">
  <defs>
    <clipPath id="clip-Web_1920_1">
      <rect width="633" height="88"/>
    </clipPath>
  </defs>
  <g id="Web_1920_1" data-name="Web 1920 – 1" clip-path="url(#clip-Web_1920_1)">
    <rect width="633" height="88" fill="#fff"/>
    <g id="Group_2" data-name="Group 2" transform="translate(37.69 -22.514)">
      <path id="Path_2722" data-name="Path 2722" d="M583.308,62.484c-2.014-1.05-2.856.461-4.111,1.2-1.756,4.039-2.622,5.065-4.648,6.269-1.6,1.483-3.473,2.267-5.636,1.345-1.555-.794-1.6.989-2.879-1.187-1.824,1.444-5.106,2.2-6.926-.105-3.108-1.021-6.221,2.372-9.328.009-3.337-.753-5.523.148-8.442-1.955-1.735-2.05-3.526-2.509-5.424-1.015-2.3-4.693-4.571-.371-6.925-1.283-2.43-.351-4.936-2.351-7.386-.1a27.948,27.948,0,0,0-7.049,1.805c-1.826-1.633-3.526-1.02-5.478,2.5-.955-.474-1.6-.847-2.671.251-2.118.558-3.846,3.057-6,2.684-1.247-.3-2.15,1.461-3.38.882-3.434.6-7.011-4.644-10.462-.023-2.709-4.013-5.429,2.648-8.145-.035-2.715,1.55-5.427,1.927-8.118.348-2.676-1.8-5.351,1.468-8.026.47-2.675-2.1-5.349-.278-8.023.6-2.84,2.632-5.948,1.891-8.488,2.255a7.35,7.35,0,0,0-6.042,1.5c-1.559,1.968-2.909.794-4.4,1.16-1.418-.273-3.008-3.06-4.309.564-1.274,1.113-1.842,2.628-2.9,1.911-3.87,1.894-8.369,3.359-12.824,1.879-2.648-1.874-5.3-2.347-7.943,0-2.287-.027-4.243-1-6.284-.614-1.189-1.907-1.588-2.307-2.615-1.909-2.314-.185-6.24.561-8.97-2.679-2.166.961-4.113,1.971-6.407-2.374-1.413-2-2.934.4-4.354.061-1.388,1.049-2.777-.731-4.165,0-1.067-1.019-2.134,2.2-3.2,0-2.514-.19-6.041-.641-8.457.059-1.153-.465-1.454,1.05-2.333,1.7-1-.486-1.782,1.182-2.976.9-2.848-2.505-5.514.721-8.4,1.739-4.541-.459-9.106-.956-13.651-.014-2.756-.288-5.075-.122-7.763-1.25-4.358-1.255-8.4.431-12.9-1.257-1.966.16-4.192-.559-6.118-.028-.838-.52-1.5-.471-2.306.605-1.655,1.271-3.466,2.347-5.142.024-2.3-.826-4.3-.261-6.321,1.353-1.463-.663-2.17.76-3.51,2.478-1.658,1.352-4.132-.019-5.967.581-2.233,4.091-4.477,1.278-6.709-.047-2.685-.561-5.056,1-7.383,1.329-2.328,2.575-4.613,1.213-7.128,2.019-2.591,2.039-5.3,3.061-8.024.617-2.724-2.084-5.462,1.612-8.111-.16-3.7-.411-7.811.318-11.494.031-4.023-.293-7.153-4.134-10.583-4.9-3.728-2.089-9.162-1.606-13.326-.77-3.249-2.9-6.394-1.322-9.317,1.73-.229-1.076-.936-1.521-1.206.226-.843-.789-1.383-2.475-2.34,2.08-1.281,3.613-3.368.542-4.853,2.117-1.708-1.494-3.968-2.064-5.716.065-3.262,1.76-6,1.341-9.327,1.952-2.188.921-4.351-1.621-6.482.252-2.462,2.274-5.054-.094-7.448,1.769-1.45-.459-2.584.318-4.19.454-2.793.4-6.147,2.231-8.909.048-4.087-.5-6.467-5.476-10.712-5.1-2.392-.158-4.685-1.405-6.954-.922-2.27-.607-4.516,1.52-6.815,2.045-2.472.695-5.1,1.744-7.746.915-2.647-.308-5.313,1.107-7.865-.086-3.061-.457-5.925-2.255-9.009-1.312-3.919,1.427-8.377-1.842-12.161.658-1.883.4-3.628,0-5.441,1.427-2.567.134-5.965,1.36-8.622,1.717-2.367,3.191-4.536,2.788-6.87.623-2.848,1.6-4.789-.787-7.158-2.032-3.669-3.548-7.283-6.239-11.965-4.891-1.436.8-4.934.291-8.1-.11-3.169-2.256-6.009-1.622-6.127,1.966-1.357,2.825-2.466,1.76-3.856-1.254a25.781,25.781,0,0,0-6.806.047c-3.08-.62-6.969.966-9.943.107-.674,1.279-1.451-.411-2.333,1.024-1.114-.387-2.223,3.2-3.329.281-2.5.25-4.107.866-5.849-1.733A13.915,13.915,0,0,0,3.2,83.026c-1.246.036-2.8-2.206-4.04-3C-3.686,75.35-9.365,77.772-11.4,81.412c-1.164-.809-2.288-.634-4,2.813-1.194-.9-2.236,4.018-3.769,2.1-1.922,1.962-4.449-.724-6.444-.045V13.638H577.63L579.1,26.3c.42,3.64.893,7.765,1.366,11.857.474,3.69.947,8.351,1.367,11.661.421,4.308.789,7.3,1.052,9.81C583.151,61.69,583.308,63.88,583.308,62.484Z" transform="translate(0 8.876)" fill="#fff"/>
      <g data-type="innerShadowGroup">
        <path id="Path_2723" data-name="Path 2723" d="M583.617,67.375c-2.014-2.372-2.856-1.613-4.112,1.09-1.756,1.345-2.621,4.8-4.648,5.719-1.6,2.463-3.472,2.325-5.636,1.226-1.554,1.273-1.6,1.276-2.878-1.083-1.824.892-5.106-2.4-6.927-.1-3.108,1.429-6.221-2.539-9.328.008-3.336-.409-5.522-1.425-8.441-1.782-1.735-3.617-3.526-1.587-5.425-.927-2.3-.235-4.571-.1-6.925-1.17-2.43,7.007-4.936-2.426-7.386-.092a50.387,50.387,0,0,0-7.048,1.647c-1.827,1.8-3.527,1.771-5.479,2.281-.954-.144-1.6-4.834-2.67.229-2.119-.424-3.847,3.566-6,2.449-1.247,1.733-2.15,1.694-3.38.8a17.075,17.075,0,0,1-10.461-.022c-2.709-1.827-5.429-2.162-8.145-.032-2.716-.872-5.427-2.11-8.118.318-2.677.469-5.352-1.376-8.027.429-2.674,2.18-5.348.911-8.023.543-2.839-3.715-5.947.823-8.488,2.056-2.018-.114-3.7,2.614-6.042,1.368-1.559,1.342-2.909-.279-4.4,1.058-1.417,2.365-3.008-.505-4.308.514-1.274,1.362-1.842,1.236-2.9,1.743-3.869.827-8.369,2.476-12.824,1.714-2.647-1.612-5.3-.017-7.942,0-2.288.592-4.243-5.465-6.285-.56-1.188-2.964-1.588-2.541-2.615-1.742-2.314-.6-6.239-1.221-8.97-2.443-2.166.258-4.112-1.65-6.406-2.165-1.413,2.313-2.935,1.063-4.355.055-1.388,1.889-2.776-1.175-4.165,0-1.066-.278-2.133-2.457-3.2,0-2.513.826-6.04-.114-8.456.054-1.153,1.1-1.454.056-2.333,1.55-1-.595-1.782,1.893-2.976.819-2.848,1.867-5.514,2.913-8.4,1.586-4.542-1.891-9.107.943-13.651-.013-2.757-3.412-5.076-2.912-7.763-1.141-4.358,2.019-8.4-.466-12.906-1.147-1.965-2.286-4.191-1.62-6.117-.024-.838-.4-1.5,2.762-2.306.552-1.655,1.034-3.467,2.411-5.143.022-2.3,1.52-4.3,1.177-6.32,1.234-1.464-1.2-2.17.924-3.511,2.26a18.628,18.628,0,0,0-5.966.531c-2.234-1.311-4.478-.456-6.71-.043-2.685-1.642-5.055.457-7.383,1.212-2.327,1.939-4.612-.674-7.127,1.841-2.591,1.454-5.3-.039-8.024.563-2.724-.672-5.462-.033-8.111-.146-3.7-.358-7.811,3.843-11.494.027-4.024,1.745-7.153-6.63-10.584-4.466-3.727-3.74-9.162-3.136-13.326-.7-3.248-.246-6.393-1.035-9.317,1.577-.228.943-.936-1.478-1.206.207-.842,2.524-1.383.135-2.339,1.9-1.281.218-3.368-1.03-4.853,1.932-1.708,1.1-3.969.691-5.716.058-3.262-1.424-6,3.3-9.327,1.781-2.189-1.468-4.352-1-6.482.23-2.463-.1-5.054-1.128-7.448,1.614-1.45-.93-2.585,1.843-4.191.414a42.449,42.449,0,0,1-8.908.043c-4.088-.036-6.467-2.517-10.712-4.653-4.785.315-9.171.336-13.77,1.025-2.472-.684-5.1-.956-7.745.835-2.647,1.985-5.314-2.412-7.866-.078-3.06-1.494-5.924-1.144-9.009-1.2-3.918.676-8.377-1.228-12.161.6-1.883,2.42-3.627,1.292-5.44,1.3C84,92.78,80.6,91.9,77.946,94.235a10.4,10.4,0,0,1-6.87.569c-2.849,2.564-4.789-1.478-7.158-1.854-3.67-4-7.283-2.69-11.966-4.461-1.435-.284-4.933,2.228-8.1-.1-3.169.539-6.008.523-6.127,1.792-1.357,1.726-2.466-1.959-3.855-1.143-2.189.892-4.594-1.116-6.807.043a44.5,44.5,0,0,0-9.943.1c-.673,4.563-1.451-.4-2.333.934-1.113,1.307-2.223,3.771-3.328.256-2.505.246-4.108.486-5.85-1.58-.868-3.807-1.009-1.862-2.1-2.675-1.245,2.424-2.8-1.166-4.04-2.738-2.849-1.123-8.527-1.716-10.558,1.265-1.164,1.631-2.288.816-4,2.566-1.194,1.621-2.236,1.033-3.769,1.915-1.921.1-4.449,1.628-6.443-.04V22.82H54.012c9.631-.071,19.942,0,30.819,0,10.877.133,22.321,0,34.219,0,11.9.337,24.247,0,36.937,0,12.691-.393,25.721,0,38.978,0,13.256-.314,26.74,0,40.337,0,13.6.365,27.306,0,41.016,0,13.71.03,27.42,0,41.017,0,13.6.046,27.08-.041,40.337,0,13.257.317,26.287-.242,38.977,0,12.691.278,25.041-.183,36.938,0,11.9.364,23.341-.843,34.219,0,10.877.077,21.188.017,30.819,0,9.631-.051,18.582-.207,26.74,0h52.574s.631,4.95,1.472,11.551c.421,2.953.894,6.6,1.367,10.367.473,3.3.946,7.278,1.367,11.085C582.986,60.612,583.617,68.148,583.617,67.375Z" transform="translate(4 7.477)" fill="#161616"/>
        <path id="Path_2723-2" data-name="Path 2723" d="M583.617,67.375c-2.014-2.372-2.856-1.613-4.112,1.09-1.756,1.345-2.621,4.8-4.648,5.719-1.6,2.463-3.472,2.325-5.636,1.226-1.554,1.273-1.6,1.276-2.878-1.083-1.824.892-5.106-2.4-6.927-.1-3.108,1.429-6.221-2.539-9.328.008-3.336-.409-5.522-1.425-8.441-1.782-1.735-3.617-3.526-1.587-5.425-.927-2.3-.235-4.571-.1-6.925-1.17-2.43,7.007-4.936-2.426-7.386-.092a50.387,50.387,0,0,0-7.048,1.647c-1.827,1.8-3.527,1.771-5.479,2.281-.954-.144-1.6-4.834-2.67.229-2.119-.424-3.847,3.566-6,2.449-1.247,1.733-2.15,1.694-3.38.8a17.075,17.075,0,0,1-10.461-.022c-2.709-1.827-5.429-2.162-8.145-.032-2.716-.872-5.427-2.11-8.118.318-2.677.469-5.352-1.376-8.027.429-2.674,2.18-5.348.911-8.023.543-2.839-3.715-5.947.823-8.488,2.056-2.018-.114-3.7,2.614-6.042,1.368-1.559,1.342-2.909-.279-4.4,1.058-1.417,2.365-3.008-.505-4.308.514-1.274,1.362-1.842,1.236-2.9,1.743-3.869.827-8.369,2.476-12.824,1.714-2.647-1.612-5.3-.017-7.942,0-2.288.592-4.243-5.465-6.285-.56-1.188-2.964-1.588-2.541-2.615-1.742-2.314-.6-6.239-1.221-8.97-2.443-2.166.258-4.112-1.65-6.406-2.165-1.413,2.313-2.935,1.063-4.355.055-1.388,1.889-2.776-1.175-4.165,0-1.066-.278-2.133-2.457-3.2,0-2.513.826-6.04-.114-8.456.054-1.153,1.1-1.454.056-2.333,1.55-1-.595-1.782,1.893-2.976.819-2.848,1.867-5.514,2.913-8.4,1.586-4.542-1.891-9.107.943-13.651-.013-2.757-3.412-5.076-2.912-7.763-1.141-4.358,2.019-8.4-.466-12.906-1.147-1.965-2.286-4.191-1.62-6.117-.024-.838-.4-1.5,2.762-2.306.552-1.655,1.034-3.467,2.411-5.143.022-2.3,1.52-4.3,1.177-6.32,1.234-1.464-1.2-2.17.924-3.511,2.26a18.628,18.628,0,0,0-5.966.531c-2.234-1.311-4.478-.456-6.71-.043-2.685-1.642-5.055.457-7.383,1.212-2.327,1.939-4.612-.674-7.127,1.841-2.591,1.454-5.3-.039-8.024.563-2.724-.672-5.462-.033-8.111-.146-3.7-.358-7.811,3.843-11.494.027-4.024,1.745-7.153-6.63-10.584-4.466-3.727-3.74-9.162-3.136-13.326-.7-3.248-.246-6.393-1.035-9.317,1.577-.228.943-.936-1.478-1.206.207-.842,2.524-1.383.135-2.339,1.9-1.281.218-3.368-1.03-4.853,1.932-1.708,1.1-3.969.691-5.716.058-3.262-1.424-6,3.3-9.327,1.781-2.189-1.468-4.352-1-6.482.23-2.463-.1-5.054-1.128-7.448,1.614-1.45-.93-2.585,1.843-4.191.414a42.449,42.449,0,0,1-8.908.043c-4.088-.036-6.467-2.517-10.712-4.653-4.785.315-9.171.336-13.77,1.025-2.472-.684-5.1-.956-7.745.835-2.647,1.985-5.314-2.412-7.866-.078-3.06-1.494-5.924-1.144-9.009-1.2-3.918.676-8.377-1.228-12.161.6-1.883,2.42-3.627,1.292-5.44,1.3C84,92.78,80.6,91.9,77.946,94.235a10.4,10.4,0,0,1-6.87.569c-2.849,2.564-4.789-1.478-7.158-1.854-3.67-4-7.283-2.69-11.966-4.461-1.435-.284-4.933,2.228-8.1-.1-3.169.539-6.008.523-6.127,1.792-1.357,1.726-2.466-1.959-3.855-1.143-2.189.892-4.594-1.116-6.807.043a44.5,44.5,0,0,0-9.943.1c-.673,4.563-1.451-.4-2.333.934-1.113,1.307-2.223,3.771-3.328.256-2.505.246-4.108.486-5.85-1.58-.868-3.807-1.009-1.862-2.1-2.675-1.245,2.424-2.8-1.166-4.04-2.738-2.849-1.123-8.527-1.716-10.558,1.265-1.164,1.631-2.288.816-4,2.566-1.194,1.621-2.236,1.033-3.769,1.915-1.921.1-4.449,1.628-6.443-.04V22.82H54.012c9.631-.071,19.942,0,30.819,0,10.877.133,22.321,0,34.219,0,11.9.337,24.247,0,36.937,0,12.691-.393,25.721,0,38.978,0,13.256-.314,26.74,0,40.337,0,13.6.365,27.306,0,41.016,0,13.71.03,27.42,0,41.017,0,13.6.046,27.08-.041,40.337,0,13.257.317,26.287-.242,38.977,0,12.691.278,25.041-.183,36.938,0,11.9.364,23.341-.843,34.219,0,10.877.077,21.188.017,30.819,0,9.631-.051,18.582-.207,26.74,0h52.574s.631,4.95,1.472,11.551c.421,2.953.894,6.6,1.367,10.367.473,3.3.946,7.278,1.367,11.085C582.986,60.612,583.617,68.148,583.617,67.375Z" transform="translate(4 7.477)" fill="#fff"/>
      </g>
    </g>
  </g>
</svg>
